P1
10 10
0000100000
0010100110
0110001010
0001000010
0110000110
0100110100
0101010110
0101011000
0111110110
0000000000
