P1
40 40
1111111111111111111111111111111111111111111111111111111111111111111111
1111111111110000000000000000000000001100000000001111000000000000000000
0000001100000000001111000000000000000000000000110000000000111100000000
0000000000000000110000000000111100000000000000000000000011000000000011
1100000000000000000000000011000000000011110000000000000000000000001100
0000000011110000000000000000000000001100000000001111000000000000000000
0000001100000000001111000000000000000000000000110000000000111100000000
0000000000000000110000000000111100000000000000000000000011000000000011
1100000000000000000000000011000000000011110000000000000000000000001100
0000000011110000000000000000000000000000000000001111000000000000011000
0000000000000000001111000000000000011000000000000000000000111100000000
0000011000000000000000000000111100000000000001100000000000000000000011
1100000000000001100000000000000000000011110000000000000110000000000000
0000000011110000000000000110000000000000000000001111000000000000011000
0000000000000000001111000000000000011000000000000000000000111100000000
0000011000000000000000000000111111111111111111100000000111111111111111
1111111111111111100000000111111111111111110000000000000000000000000000
0000000011110000000000000000000000000000000000001111000000000000000000
0000000000000000001111000000000000000000000000000000000000111100000000
0000000000000000000000000000111100000000000000000000000000000000000011
1100000000000000000000000000000000000011110000000000000000000000000000
0000000011110000000000000000000000000000000000001111111111111111111111
111111111111111111111111111111111111111111111111111111111111
